<svg width="51" height="36" viewBox="0 0 51 36" fill="none" xmlns="http://www.w3.org/2000/svg">
<rect width="51" height="36" fill="#585858"/>
<path d="M17.0625 7C15.9238 7 15 8.00781 15 9.25V25.75C15 26.9922 15.9238 28 17.0625 28H34.9375C36.0762 28 37 26.9922 37 25.75V9.25C37 8.00781 36.0762 7 34.9375 7H17.0625ZM17.0625 8.5H21.6172C21.759 8.5 21.875 8.62656 21.875 8.78125V9.71875C21.875 9.87344 21.759 10 21.6172 10H16.6328C16.491 10 16.375 9.87344 16.375 9.71875V9.25C16.375 8.8375 16.6844 8.5 17.0625 8.5ZM35.3672 13H16.6328C16.491 13 16.375 12.8734 16.375 12.7188V11.0312C16.375 10.8766 16.491 10.75 16.6328 10.75H22.5625L23.8602 8.62656C23.9074 8.54687 23.9891 8.5 24.075 8.5H34.9375C35.3156 8.5 35.625 8.8375 35.625 9.25V12.7188C35.625 12.8734 35.509 13 35.3672 13ZM26 25.375C23.1555 25.375 20.8438 22.8531 20.8438 19.75C20.8438 16.6469 23.1555 14.125 26 14.125C28.8445 14.125 31.1562 16.6469 31.1562 19.75C31.1562 22.8531 28.8445 25.375 26 25.375ZM26 15.625C23.916 15.625 22.2188 17.4766 22.2188 19.75C22.2188 22.0234 23.916 23.875 26 23.875C28.084 23.875 29.7812 22.0234 29.7812 19.75C29.7812 17.4766 28.084 15.625 26 15.625ZM23.9375 20.5C23.5594 20.5 23.25 20.1625 23.25 19.75C23.25 18.0953 24.4832 16.75 26 16.75C26.3781 16.75 26.6875 17.0875 26.6875 17.5C26.6875 17.9125 26.3781 18.25 26 18.25C25.2437 18.25 24.625 18.925 24.625 19.75C24.625 20.1625 24.3156 20.5 23.9375 20.5Z" fill="#FF9B21"/>
</svg>
