<svg width="191" height="191" viewBox="0 0 191 191" fill="none" xmlns="http://www.w3.org/2000/svg">
<circle cx="95.5" cy="95.5" r="95.5" fill="#FFE8CB"/>
<path d="M85 150H101.167C104.388 150 107 147.388 107 144.167V144.167C107 140.945 104.388 138.333 101.167 138.333H90C87.2386 138.333 85 136.095 85 133.333V133.333C85 130.572 87.2386 128.333 90 128.333H102.833C105.135 128.333 107 126.468 107 124.167V124.167C107 121.865 105.135 120 102.833 120H85" stroke="#FFBC39" stroke-width="5"/>
<path d="M87.9104 119V118.559C87.9104 114.562 85.6789 110.9 82.1268 109.067V109.067C80.2534 108.1 78.7079 106.6 77.685 104.757L73.194 96.6642L71.164 92.5904C69.0831 88.4144 68 83.8124 68 79.1467V79.1467C68 74.6673 68.9983 70.2442 70.9224 66.1991L71.6825 64.6011C72.6841 62.4954 74.0067 60.558 75.603 58.8583V58.8583C78.0036 56.302 80.9681 54.3417 84.2603 53.1336L85.4361 52.7021C88.5044 51.5762 91.7472 51 95.0156 51H97" stroke="#FFBC39" stroke-width="6"/>
<path d="M103.642 119V118.882C103.642 114.982 105.795 111.402 109.24 109.574V109.574C111.078 108.598 112.586 107.101 113.574 105.27L117.95 97.1593L119.907 93.1213C121.942 88.9197 123 84.3116 123 79.6428V79.6428C123 75.1617 122.026 70.7342 120.145 66.667L119.518 65.313C118.479 63.0658 117.1 60.9918 115.431 59.1635V59.1635C113.206 56.7272 110.506 54.7724 107.497 53.4196L106.78 53.0973C103.705 51.7148 100.372 51 97 51V51" stroke="#FFBC39" stroke-width="6"/>
<path d="M85 91L88.2195 97M88.2195 97L96 111.5L99 110L101 97M88.2195 97L93 93.5L96 97L99 93.5L101 97M101 97L102 90" stroke="#FFB861" stroke-width="2" stroke-linecap="round" stroke-linejoin="round"/>
<circle cx="85.5" cy="91.5" r="2.5" fill="#FFB861"/>
<circle cx="102.5" cy="89.5" r="2.5" fill="#FFB861"/>
<path d="M57.2027 123L37.0145 114.114C33.7098 112.66 32.9891 108.29 35.6517 105.851L43.6361 98.5382C45.519 96.8137 45.8001 93.9475 44.288 91.8901L32.6579 76.0647C31.1459 74.0072 31.427 71.141 33.3099 69.4165L46.1385 57.6672C46.6705 57.1799 47.0908 56.5833 47.3704 55.9182L55.4708 36.6567C56.4572 34.3112 59.0478 33.0805 61.4892 33.7978L74.8006 37.7086C76.0945 38.0888 77.4872 37.9301 78.6625 37.2686L97.7302 26.5362C99.3995 25.5966 101.459 25.6933 103.033 26.7852L117.563 36.8654C118.866 37.7696 120.521 38.0017 122.023 37.4908L132.027 34.0876C134.57 33.2225 137.342 34.5213 138.305 37.0289L145.549 55.8944C145.811 56.575 146.218 57.1902 146.742 57.6969L158.477 69.0424C160.434 70.9343 160.518 74.044 158.667 76.0389L148.795 86.6729C147.147 88.4487 147.009 91.151 148.468 93.0855L158.612 106.535C160.415 108.925 159.726 112.354 157.14 113.864L141.486 123" stroke="#FFC700" stroke-width="3"/>
</svg>
