<svg width="191" height="191" viewBox="0 0 191 191" fill="none" xmlns="http://www.w3.org/2000/svg">
<circle cx="95.5" cy="95.5" r="95.5" fill="#FFE8CB"/>
<rect x="37" y="56.7838" width="117.439" height="76.4397" rx="2" fill="#FFB861"/>
<circle cx="42.5593" cy="63.0379" r="2.08472" fill="#FFD7A7"/>
<circle cx="48.1184" cy="63.0379" r="2.08472" fill="#FFD7A7"/>
<circle cx="53.6775" cy="63.0379" r="2.08472" fill="#FFD7A7"/>
<rect x="49.5083" y="72.0717" width="90.3378" height="50.0333" rx="2" fill="#FFF3E5"/>
<rect x="109.271" y="79.7157" width="23.6268" height="22.237" rx="2" fill="#FFE4C3"/>
<rect x="55.7627" y="113.766" width="23.6268" height="8.33888" rx="2" fill="#FFEED9"/>
<path d="M54.7202 79.7157H80.0843" stroke="#FAD8AF"/>
<path d="M55.0674 90.8342H87.0331" stroke="#FAD8AF"/>
<path d="M55.0674 97.0884H87.0331" stroke="#FAD8AF"/>
<path d="M100.932 117.936H132.897" stroke="#FAD8AF"/>
<path d="M55.0674 102.648H87.0331" stroke="#FAD8AF"/>
<rect x="72.4399" y="130.444" width="46.5587" height="2.77963" fill="#FFF3E5"/>
<rect x="77.3047" y="127.664" width="4.16944" height="4.16944" fill="#FFDFB8"/>
<rect x="82.8638" y="127.664" width="4.16944" height="4.16944" fill="#FFDFB8"/>
<rect x="88.4229" y="127.664" width="4.16944" height="4.16944" fill="#FFDFB8"/>
<rect x="93.9819" y="127.664" width="4.16944" height="4.16944" fill="#FFDFB8"/>
<rect x="99.5415" y="127.664" width="4.16944" height="4.16944" fill="#FFDFB8"/>
<rect x="105.101" y="127.664" width="4.16944" height="4.16944" fill="#FFDFB8"/>
<rect x="110.66" y="127.664" width="4.16944" height="4.16944" fill="#FFDFB8"/>
<g filter="url(#filter0_d)">
<circle cx="95.0034" cy="159.382" r="20.0034" fill="#FFF3E5"/>
<path d="M95.0034 148.471V170.293" stroke="#FFB861" stroke-width="3" stroke-linejoin="round"/>
<path d="M84.0923 159.382H105.914" stroke="#FFB861" stroke-width="3" stroke-linejoin="round"/>
</g>
<defs>
<filter id="filter0_d" x="71" y="139.378" width="48.0068" height="48.0068" filterUnits="userSpaceOnUse" color-interpolation-filters="sRGB">
<feFlood flood-opacity="0" result="BackgroundImageFix"/>
<feColorMatrix in="SourceAlpha" type="matrix" values="0 0 0 0 0 0 0 0 0 0 0 0 0 0 0 0 0 0 127 0"/>
<feOffset dy="4"/>
<feGaussianBlur stdDeviation="2"/>
<feColorMatrix type="matrix" values="0 0 0 0 0 0 0 0 0 0 0 0 0 0 0 0 0 0 0.1 0"/>
<feBlend mode="normal" in2="BackgroundImageFix" result="effect1_dropShadow"/>
<feBlend mode="normal" in="SourceGraphic" in2="effect1_dropShadow" result="shape"/>
</filter>
</defs>
</svg>
