<svg width="191" height="191" viewBox="0 0 191 191" fill="none" xmlns="http://www.w3.org/2000/svg">
<circle cx="95.5" cy="95.5" r="95.5" fill="#FFE8CB"/>
<path d="M73 117.5L125.818 77.3602M73 117.5L60.7793 112.33C60.2811 112.119 59.7189 112.119 59.2207 112.33L47 117.5M73 117.5V128.044C73 128.649 72.7268 129.221 72.2567 129.6L60 139.5M125.818 77.3602L122.363 65.6095C122.144 64.8659 122.375 64.0631 122.955 63.5489L132.596 55M125.818 77.3602L134.839 79.7409C135.546 79.9274 136.298 79.7133 136.801 79.1825L147 68.4161" stroke="#FEA435" stroke-width="5" stroke-linecap="square"/>
<path d="M119.974 132.495V130.99H122.244L123 132.495L121.487 134L119.974 132.495Z" fill="#C4C4C4"/>
<path d="M64 55L119.974 130.99M119.974 130.99V132.495L121.487 134L123 132.495L122.244 130.99H119.974Z" stroke="#FFB861" stroke-width="3"/>
<path d="M85.641 90L89.8462 86.8125L93 83.625V78.3125L68.8205 43.25L63.5641 39L52 46.4375L54.1026 53.875L80.3846 90H85.641Z" fill="#FFB964"/>
<g filter="url(#filter0_d)">
<circle cx="98" cy="162" r="20" fill="#FFEDD8"/>
</g>
<path d="M93.9473 156.632L95.9867 152.553C96.1561 152.214 96.5023 152 96.8811 152H99.6227C100.04 152 100.413 152.259 100.559 152.649L102.053 156.632" stroke="#FC8D06"/>
<rect x="87" y="155.474" width="22" height="16.2105" rx="1" fill="#FFB861"/>
<path d="M92.834 165.055V166H92.414C91.6407 166 91.254 165.615 91.254 164.845V164.105H90.904V163.18H91.254V162.5H92.364V163.18H92.824V164.105H92.364V164.865C92.364 164.932 92.379 164.98 92.409 165.01C92.4423 165.04 92.4957 165.055 92.569 165.055H92.834ZM95.1717 166.035C94.8884 166.035 94.6334 165.977 94.4067 165.86C94.1801 165.743 94.0017 165.577 93.8717 165.36C93.7451 165.14 93.6817 164.883 93.6817 164.59C93.6817 164.297 93.7451 164.042 93.8717 163.825C94.0017 163.605 94.1801 163.437 94.4067 163.32C94.6334 163.203 94.8884 163.145 95.1717 163.145C95.4551 163.145 95.7101 163.203 95.9367 163.32C96.1634 163.437 96.3401 163.605 96.4667 163.825C96.5967 164.042 96.6617 164.297 96.6617 164.59C96.6617 164.883 96.5967 165.14 96.4667 165.36C96.3401 165.577 96.1634 165.743 95.9367 165.86C95.7101 165.977 95.4551 166.035 95.1717 166.035ZM95.1717 165.075C95.2751 165.075 95.3617 165.035 95.4317 164.955C95.5017 164.872 95.5367 164.75 95.5367 164.59C95.5367 164.43 95.5017 164.31 95.4317 164.23C95.3617 164.147 95.2751 164.105 95.1717 164.105C95.0684 164.105 94.9817 164.147 94.9117 164.23C94.8417 164.31 94.8067 164.43 94.8067 164.59C94.8067 164.75 94.8401 164.872 94.9067 164.955C94.9767 165.035 95.0651 165.075 95.1717 165.075ZM98.9254 166.035C98.6421 166.035 98.3871 165.977 98.1604 165.86C97.9338 165.743 97.7554 165.577 97.6254 165.36C97.4988 165.14 97.4354 164.883 97.4354 164.59C97.4354 164.297 97.4988 164.042 97.6254 163.825C97.7554 163.605 97.9338 163.437 98.1604 163.32C98.3871 163.203 98.6421 163.145 98.9254 163.145C99.2088 163.145 99.4638 163.203 99.6904 163.32C99.9171 163.437 100.094 163.605 100.22 163.825C100.35 164.042 100.415 164.297 100.415 164.59C100.415 164.883 100.35 165.14 100.22 165.36C100.094 165.577 99.9171 165.743 99.6904 165.86C99.4638 165.977 99.2088 166.035 98.9254 166.035ZM98.9254 165.075C99.0288 165.075 99.1154 165.035 99.1854 164.955C99.2554 164.872 99.2904 164.75 99.2904 164.59C99.2904 164.43 99.2554 164.31 99.1854 164.23C99.1154 164.147 99.0288 164.105 98.9254 164.105C98.8221 164.105 98.7354 164.147 98.6654 164.23C98.5954 164.31 98.5604 164.43 98.5604 164.59C98.5604 164.75 98.5938 164.872 98.6604 164.955C98.7304 165.035 98.8188 165.075 98.9254 165.075ZM102.449 162.3V166H101.339V162.3H102.449ZM104.78 166.035C104.514 166.035 104.277 165.992 104.07 165.905C103.867 165.818 103.705 165.698 103.585 165.545C103.465 165.392 103.397 165.218 103.38 165.025H104.445C104.459 165.108 104.494 165.17 104.55 165.21C104.61 165.25 104.685 165.27 104.775 165.27C104.832 165.27 104.877 165.258 104.91 165.235C104.944 165.208 104.96 165.177 104.96 165.14C104.96 165.077 104.925 165.032 104.855 165.005C104.785 164.978 104.667 164.948 104.5 164.915C104.297 164.875 104.129 164.832 103.995 164.785C103.865 164.738 103.75 164.658 103.65 164.545C103.554 164.432 103.505 164.275 103.505 164.075C103.505 163.902 103.55 163.745 103.64 163.605C103.734 163.462 103.87 163.35 104.05 163.27C104.23 163.187 104.449 163.145 104.705 163.145C105.085 163.145 105.382 163.238 105.595 163.425C105.812 163.612 105.942 163.855 105.985 164.155H105C104.984 164.078 104.949 164.02 104.895 163.98C104.842 163.937 104.77 163.915 104.68 163.915C104.624 163.915 104.58 163.927 104.55 163.95C104.52 163.97 104.505 164.002 104.505 164.045C104.505 164.102 104.54 164.145 104.61 164.175C104.68 164.202 104.792 164.23 104.945 164.26C105.149 164.3 105.32 164.345 105.46 164.395C105.6 164.445 105.722 164.532 105.825 164.655C105.929 164.775 105.98 164.942 105.98 165.155C105.98 165.322 105.932 165.472 105.835 165.605C105.739 165.738 105.599 165.843 105.415 165.92C105.235 165.997 105.024 166.035 104.78 166.035Z" fill="#FFE8CB"/>
<defs>
<filter id="filter0_d" x="76" y="142" width="44" height="44" filterUnits="userSpaceOnUse" color-interpolation-filters="sRGB">
<feFlood flood-opacity="0" result="BackgroundImageFix"/>
<feColorMatrix in="SourceAlpha" type="matrix" values="0 0 0 0 0 0 0 0 0 0 0 0 0 0 0 0 0 0 127 0"/>
<feOffset dy="2"/>
<feGaussianBlur stdDeviation="1"/>
<feColorMatrix type="matrix" values="0 0 0 0 0 0 0 0 0 0 0 0 0 0 0 0 0 0 0.25 0"/>
<feBlend mode="normal" in2="BackgroundImageFix" result="effect1_dropShadow"/>
<feBlend mode="normal" in="SourceGraphic" in2="effect1_dropShadow" result="shape"/>
</filter>
</defs>
</svg>
