<svg width="378" height="378" viewBox="0 0 378 378" fill="none" xmlns="http://www.w3.org/2000/svg">
<circle cx="189" cy="189" r="189" fill="#FFEFDB"/>
<path d="M119.625 132.984V280C119.625 289.389 127.236 297 136.625 297H247.245C256.634 297 264.245 289.389 264.245 280V132.984M153 148.528V211.5V273.952M229.024 148.528V273.952M300 132.984L292.812 122.939C289.62 118.478 284.472 115.832 278.987 115.832H253.525C248.482 115.832 243.7 113.594 240.47 109.722L234.121 102.11C230.891 98.2384 226.109 96 221.067 96H164.715C160.112 96 155.707 97.866 152.505 101.172L143.313 110.66C140.111 113.966 135.705 115.832 131.102 115.832H104.915C100.97 115.832 97.1476 117.204 94.1032 119.713L78 132.984M193 148.528V273.952" stroke="#FFB861" stroke-width="14"/>
</svg>
